<?xml version="1.0" encoding="utf-8"?>
<!-- Generator: Adobe Illustrator 16.0.0, SVG Export Plug-In . SVG Version: 6.00 Build 0)  -->
<!DOCTYPE svg PUBLIC "-//W3C//DTD SVG 1.1//EN" "http://www.w3.org/Graphics/SVG/1.1/DTD/svg11.dtd">
<svg version="1.1" id="Layer_1" xmlns="http://www.w3.org/2000/svg" xmlns:xlink="http://www.w3.org/1999/xlink" x="0px" y="0px"
	 width="57.6px" height="36.6px" viewBox="0 0 57.6 36.6" enable-background="new 0 0 57.6 36.6" xml:space="preserve">
<g>
	<defs>
		<rect id="SVGID_1_" y="0" width="57.6" height="36.6"/>
	</defs>
	<clipPath id="SVGID_2_">
		<use xlink:href="#SVGID_1_"  overflow="visible"/>
	</clipPath>
	<path clip-path="url(#SVGID_2_)" fill="#FFFFFF" d="M40.6,36L57,19.6c0.399-0.399,0.6-0.899,0.6-1.399c0-0.6-0.2-1.1-0.6-1.4
		L40.799,0.601C40-0.2,38.799-0.2,38,0.601C37.6,1,37.399,1.5,37.399,2S37.6,3.101,38,3.4l12.699,12.9h-48.7c-1.1,0-2,0.9-2,2
		s0.9,2,2,2h48.7l-12.9,12.899c-0.399,0.399-0.6,0.899-0.6,1.399s0.2,1,0.6,1.4C38.6,36.801,39.799,36.801,40.6,36"/>
</g>
</svg>
