<?xml version="1.0" encoding="utf-8"?>
<!-- Generator: Adobe Illustrator 16.0.0, SVG Export Plug-In . SVG Version: 6.00 Build 0)  -->
<!DOCTYPE svg PUBLIC "-//W3C//DTD SVG 1.1//EN" "http://www.w3.org/Graphics/SVG/1.1/DTD/svg11.dtd">
<svg version="1.1" id="Layer_1" xmlns="http://www.w3.org/2000/svg" xmlns:xlink="http://www.w3.org/1999/xlink" x="0px" y="0px"
	 width="57.6px" height="36.6px" viewBox="0 0 57.6 36.6" enable-background="new 0 0 57.6 36.6" xml:space="preserve">
<g>
	<defs>
		<rect id="SVGID_1_" width="57.6" height="36.6"/>
	</defs>
	<clipPath id="SVGID_2_">
		<use xlink:href="#SVGID_1_"  overflow="visible"/>
	</clipPath>
	<path clip-path="url(#SVGID_2_)" fill="#FFFFFF" d="M17,0.6L0.6,17C0.2,17.4,0,17.9,0,18.4c0,0.6,0.2,1.1,0.6,1.4L16.8,36
		c0.8,0.801,2,0.801,2.8,0C20,35.6,20.2,35.1,20.2,34.6S20,33.5,19.6,33.201L6.9,20.3h48.7c1.1,0,2-0.9,2-2s-0.9-2-2-2H6.9L19.8,3.4
		C20.2,3,20.4,2.5,20.4,2s-0.2-1-0.6-1.4C19-0.2,17.8-0.2,17,0.6"/>
</g>
</svg>
