<?xml version="1.0" encoding="utf-8"?>
<!-- Generator: Adobe Illustrator 22.0.1, SVG Export Plug-In . SVG Version: 6.00 Build 0)  -->
<svg version="1.1" id="Layer_1" xmlns="http://www.w3.org/2000/svg" xmlns:xlink="http://www.w3.org/1999/xlink" x="0px" y="0px"
	 viewBox="0 0 156 44" style="enable-background:new 0 0 156 44;" xml:space="preserve">
<style type="text/css">
	.st0{fill:url(#SVGID_1_);}
	.st1{fill:url(#SVGID_2_);}
	.st2{fill:url(#SVGID_3_);}
	.st3{fill:url(#SVGID_4_);}
	.st4{fill:#FFFFFF;}
</style>
<linearGradient id="SVGID_1_" gradientUnits="userSpaceOnUse" x1="4.2295" y1="22.1781" x2="36.927" y2="22.1781">
	<stop  offset="9.193640e-02" style="stop-color:#CCCCCC"/>
	<stop  offset="0.2153" style="stop-color:#D3D3D7"/>
	<stop  offset="0.3017" style="stop-color:#E5E4E4"/>
	<stop  offset="0.4102" style="stop-color:#E3E3E3"/>
	<stop  offset="0.5827" style="stop-color:#E6E5E5"/>
	<stop  offset="0.7359" style="stop-color:#C4C5C4"/>
	<stop  offset="0.8508" style="stop-color:#F2F2F2"/>
	<stop  offset="0.9035" style="stop-color:#F2F2F2"/>
	<stop  offset="0.9653" style="stop-color:#D9D9DC"/>
</linearGradient>
<path class="st0" d="M32.1,27.5c-1.5-0.9-3.1-1.9-4.9-2.9c-1.7-1-3.4-2.2-4.9-3.6c-1.5-1.4-2.8-3-3.7-5c-1-1.9-1.5-4.3-1.5-7.1
	c0-1.7,0.1-3.2,0.4-4.6h-2.7c-0.8,0-1.6,0.3-2.1,0.9l-7.6,7.6c-0.6,0.6-0.9,1.4-0.9,2.1c0,0.7,0.3,1.4,0.8,2l20.9,22.3
	c0.6,0.6,1.4,1,2.2,1c0.9,0,1.7-0.4,2.2-1l6.6-7c-0.2-0.6-0.6-1.1-1.1-1.6C34.9,29.5,33.6,28.5,32.1,27.5z"/>
<linearGradient id="SVGID_2_" gradientUnits="userSpaceOnUse" x1="27.8251" y1="13.259" x2="51.5559" y2="13.259">
	<stop  offset="9.193640e-02" style="stop-color:#CCCCCC"/>
	<stop  offset="0.2153" style="stop-color:#D3D3D7"/>
	<stop  offset="0.3017" style="stop-color:#E5E4E4"/>
	<stop  offset="0.4102" style="stop-color:#E3E3E3"/>
	<stop  offset="0.5827" style="stop-color:#E6E5E5"/>
	<stop  offset="0.7359" style="stop-color:#C4C5C4"/>
	<stop  offset="0.8508" style="stop-color:#F2F2F2"/>
	<stop  offset="0.9035" style="stop-color:#F2F2F2"/>
	<stop  offset="0.9653" style="stop-color:#D9D9DC"/>
</linearGradient>
<path class="st1" d="M43.4,5c-0.6-0.6-1.3-0.9-2.1-0.9L29.6,3.2c0,0.1-0.1,0.1-0.1,0.2c-0.5,0.9-1.6,2.8-1.6,4c0,1.6,0.5,3,1.5,4.1
	c1,1.1,2.2,2.1,3.7,3.1c1.5,1,3.1,1.9,4.9,2.9c1.7,1,3.3,2.1,4.9,3.5c0.8,0.7,1.5,1.4,2.1,2.2l5.9-6.6c0.5-0.6,0.8-1.3,0.8-2
	c0-0.8-0.3-1.5-0.9-2.1L43.4,5z"/>
<linearGradient id="SVGID_3_" gradientUnits="userSpaceOnUse" x1="3.3562" y1="23.0298" x2="36.0537" y2="23.0298">
	<stop  offset="6.922260e-02" style="stop-color:#F4F4F4"/>
	<stop  offset="0.1199" style="stop-color:#EFEFEF"/>
	<stop  offset="0.3053" style="stop-color:#E4E2E2"/>
	<stop  offset="0.4934" style="stop-color:#E0DEDE"/>
	<stop  offset="0.7787" style="stop-color:#E4E2E2"/>
	<stop  offset="0.957" style="stop-color:#EAEAEA"/>
</linearGradient>
<path class="st2" d="M31.2,28.4c-1.5-0.9-3.1-1.9-4.9-2.9c-1.7-1-3.4-2.2-4.9-3.6c-1.5-1.4-2.8-3-3.7-5c-1-1.9-1.5-4.3-1.5-7.1
	c0-1.7,0.2-3.2,0.5-4.6h-2.8c-0.8,0-1.6,0.3-2.1,0.9l-7.6,7.6c-0.6,0.6-0.9,1.4-0.9,2.1c0,0.7,0.3,1.4,0.8,2L25,40
	c0.6,0.6,1.4,1,2.2,1c0.9,0,1.7-0.4,2.2-1l6.6-7c-0.2-0.6-0.6-1.1-1.1-1.6C34,30.3,32.8,29.3,31.2,28.4z"/>
<linearGradient id="SVGID_4_" gradientUnits="userSpaceOnUse" x1="28.5953" y1="12.8303" x2="52.612" y2="12.8303">
	<stop  offset="6.922260e-02" style="stop-color:#F4F4F4"/>
	<stop  offset="0.1199" style="stop-color:#EFEFEF"/>
	<stop  offset="0.3053" style="stop-color:#E4E2E2"/>
	<stop  offset="0.4934" style="stop-color:#E0DEDE"/>
	<stop  offset="0.7787" style="stop-color:#E4E2E2"/>
	<stop  offset="0.957" style="stop-color:#EAEAEA"/>
</linearGradient>
<path class="st3" d="M44.1,4.1c-0.6-0.6-1.3-0.9-2.1-0.9H29.6c0,0.1-0.1,0.1-0.1,0.2c-0.5,0.9-0.8,1.9-0.8,3.1c0,1.6,0.5,3,1.5,4.1
	c1,1.1,2.2,2.1,3.7,3.1c1.5,1,3.1,1.9,4.9,2.9c1.7,1,3.3,2.1,4.9,3.5c0.8,0.7,1.5,1.4,2.1,2.2l6.2-6.6c0.5-0.6,0.8-1.3,0.8-2
	c0-0.8-0.3-1.5-0.9-2.1L44.1,4.1z"/>
<g>
	<path class="st4" d="M75.8,17.2c-0.1,0.1-0.2,0.3-0.3,0.3c-0.1,0.1-0.2,0.1-0.3,0.1s-0.3-0.1-0.5-0.2c-0.2-0.1-0.4-0.2-0.6-0.3
		c-0.2-0.1-0.5-0.2-0.8-0.3c-0.3-0.1-0.7-0.2-1.1-0.2c-0.4,0-0.7,0-1,0.1c-0.3,0.1-0.5,0.2-0.7,0.4c-0.2,0.2-0.3,0.4-0.4,0.6
		C70,17.9,70,18.1,70,18.4c0,0.3,0.1,0.6,0.3,0.9c0.2,0.2,0.4,0.4,0.8,0.6c0.3,0.2,0.7,0.3,1.1,0.4c0.4,0.1,0.8,0.3,1.2,0.4
		s0.8,0.3,1.2,0.5s0.8,0.4,1.1,0.7c0.3,0.3,0.6,0.7,0.8,1.1c0.2,0.4,0.3,0.9,0.3,1.5c0,0.7-0.1,1.3-0.3,1.9c-0.2,0.6-0.6,1.1-1,1.5
		c-0.4,0.4-1,0.8-1.6,1s-1.3,0.4-2.2,0.4c-0.5,0-0.9,0-1.4-0.1c-0.5-0.1-0.9-0.2-1.3-0.4c-0.4-0.2-0.8-0.4-1.2-0.6
		c-0.4-0.2-0.7-0.5-1-0.8l0.8-1.3c0.1-0.1,0.2-0.2,0.3-0.2c0.1-0.1,0.2-0.1,0.3-0.1c0.2,0,0.4,0.1,0.5,0.2c0.2,0.1,0.4,0.3,0.7,0.5
		c0.3,0.2,0.6,0.3,0.9,0.5s0.8,0.2,1.3,0.2c0.8,0,1.4-0.2,1.8-0.6c0.4-0.4,0.6-0.9,0.6-1.6c0-0.4-0.1-0.7-0.3-0.9
		c-0.2-0.2-0.4-0.4-0.8-0.6c-0.3-0.2-0.7-0.3-1.1-0.4s-0.8-0.2-1.2-0.4c-0.4-0.1-0.8-0.3-1.2-0.5c-0.4-0.2-0.8-0.4-1.1-0.7
		s-0.6-0.7-0.8-1.1c-0.2-0.5-0.3-1-0.3-1.7c0-0.5,0.1-1.1,0.3-1.6s0.5-1,0.9-1.3s0.9-0.7,1.5-0.9c0.6-0.2,1.3-0.4,2-0.4
		c0.9,0,1.7,0.1,2.4,0.4c0.7,0.3,1.3,0.6,1.9,1.1L75.8,17.2z"/>
	<path class="st4" d="M89.6,14.5v2.2h-4.4v12.4h-2.7V16.8H78v-2.2H89.6z"/>
	<path class="st4" d="M100.9,14.5v2.2h-6.5v4.1h5.1v2.1h-5.1V27h6.5v2.2h-9.2V14.5H100.9z"/>
	<path class="st4" d="M105.4,14.5c0.1,0,0.2,0,0.2,0.1c0.1,0,0.1,0.1,0.2,0.1c0.1,0.1,0.1,0.1,0.2,0.2l7.7,9.8c0-0.2,0-0.5-0.1-0.7
		c0-0.2,0-0.4,0-0.6v-8.9h2.4v14.6h-1.4c-0.2,0-0.4,0-0.5-0.1c-0.1-0.1-0.3-0.2-0.4-0.4l-7.6-9.7c0,0.2,0,0.4,0,0.6
		c0,0.2,0,0.4,0,0.6v9h-2.4V14.5h1.4C105.2,14.5,105.3,14.5,105.4,14.5z"/>
	<path class="st4" d="M129.4,25.7c0.1,0,0.3,0.1,0.4,0.2l1.1,1.2c-0.6,0.7-1.3,1.3-2.2,1.7c-0.9,0.4-1.9,0.6-3.1,0.6
		c-1.1,0-2.1-0.2-2.9-0.6c-0.9-0.4-1.6-0.9-2.2-1.5c-0.6-0.7-1.1-1.5-1.4-2.4c-0.3-0.9-0.5-1.9-0.5-3c0-1.1,0.2-2.1,0.5-3
		s0.9-1.7,1.5-2.4s1.5-1.2,2.4-1.5c0.9-0.4,1.9-0.6,3.1-0.6c1.1,0,2,0.2,2.8,0.5c0.8,0.3,1.5,0.8,2.1,1.4l-0.9,1.3
		c-0.1,0.1-0.1,0.2-0.2,0.2c-0.1,0.1-0.2,0.1-0.3,0.1c-0.2,0-0.3-0.1-0.5-0.2c-0.2-0.1-0.4-0.3-0.6-0.4c-0.2-0.1-0.6-0.3-0.9-0.4
		c-0.4-0.1-0.9-0.2-1.5-0.2c-0.7,0-1.3,0.1-1.9,0.4c-0.6,0.2-1.1,0.6-1.5,1s-0.7,1-1,1.6c-0.2,0.6-0.3,1.4-0.3,2.1
		c0,0.8,0.1,1.6,0.3,2.2c0.2,0.6,0.5,1.2,0.9,1.6s0.9,0.8,1.4,1c0.5,0.2,1.1,0.3,1.7,0.3c0.4,0,0.7,0,1-0.1c0.3,0,0.6-0.1,0.8-0.2
		c0.3-0.1,0.5-0.2,0.7-0.3c0.2-0.1,0.5-0.3,0.7-0.5c0.1-0.1,0.1-0.1,0.2-0.1S129.3,25.7,129.4,25.7z"/>
	<path class="st4" d="M136.4,29.1h-2.7V14.5h2.7V29.1z"/>
	<path class="st4" d="M142.8,26.9h5.9v2.2h-8.6V14.5h2.7V26.9z"/>
</g>
</svg>
