<?xml version="1.0" encoding="utf-8"?>
<!-- Generator: Adobe Illustrator 22.0.1, SVG Export Plug-In . SVG Version: 6.00 Build 0)  -->
<svg version="1.1" id="Layer_1" xmlns="http://www.w3.org/2000/svg" xmlns:xlink="http://www.w3.org/1999/xlink" x="0px" y="0px"
	 viewBox="0 0 39 30" style="enable-background:new 0 0 39 30;" xml:space="preserve">
<style type="text/css">
	.st0{fill:url(#SVGID_1_);}
	.st1{fill:url(#SVGID_2_);}
	.st2{fill:url(#SVGID_3_);}
	.st3{fill:url(#SVGID_4_);}
</style>
<linearGradient id="SVGID_1_" gradientUnits="userSpaceOnUse" x1="3.6982" y1="15.5986" x2="25.8661" y2="15.5986">
	<stop  offset="9.193640e-02" style="stop-color:#CCCCCC"/>
	<stop  offset="0.2153" style="stop-color:#D3D3D7"/>
	<stop  offset="0.3017" style="stop-color:#E5E4E4"/>
	<stop  offset="0.4102" style="stop-color:#E3E3E3"/>
	<stop  offset="0.5827" style="stop-color:#E6E5E5"/>
	<stop  offset="0.7359" style="stop-color:#C4C5C4"/>
	<stop  offset="0.8508" style="stop-color:#F2F2F2"/>
	<stop  offset="0.9035" style="stop-color:#F2F2F2"/>
	<stop  offset="0.9653" style="stop-color:#D9D9DC"/>
</linearGradient>
<path class="st0" d="M22.6,19.2c-1-0.6-2.1-1.3-3.3-2c-1.2-0.7-2.3-1.5-3.3-2.4c-1-0.9-1.9-2.1-2.5-3.4c-0.7-1.3-1-2.9-1-4.8
	c0-1.1,0-2.2,0.3-3.2h-1.8c-0.5,0-1.1,0.2-1.4,0.6L4.3,9.2c-0.4,0.4-0.6,0.9-0.6,1.4c0,0.5,0.2,1,0.5,1.3l14.2,15.1
	c0.4,0.4,0.9,0.7,1.5,0.7c0.6,0,1.1-0.2,1.5-0.7l4.4-4.7c-0.2-0.4-0.4-0.8-0.7-1.1C24.5,20.5,23.6,19.9,22.6,19.2z"/>
<linearGradient id="SVGID_2_" gradientUnits="userSpaceOnUse" x1="19.6953" y1="9.5518" x2="35.784" y2="9.5518">
	<stop  offset="9.193640e-02" style="stop-color:#CCCCCC"/>
	<stop  offset="0.2153" style="stop-color:#D3D3D7"/>
	<stop  offset="0.3017" style="stop-color:#E5E4E4"/>
	<stop  offset="0.4102" style="stop-color:#E3E3E3"/>
	<stop  offset="0.5827" style="stop-color:#E6E5E5"/>
	<stop  offset="0.7359" style="stop-color:#C4C5C4"/>
	<stop  offset="0.8508" style="stop-color:#F2F2F2"/>
	<stop  offset="0.9035" style="stop-color:#F2F2F2"/>
	<stop  offset="0.9653" style="stop-color:#D9D9DC"/>
</linearGradient>
<path class="st1" d="M30.2,3.9c-0.4-0.4-0.9-0.6-1.4-0.6l-7.9-0.6c0,0-0.1,0.1-0.1,0.1c-0.4,0.6-1.1,1.9-1.1,2.7c0,1.1,0.3,2,1,2.8
	c0.7,0.7,1.5,1.5,2.5,2.1c1,0.7,2.1,1.3,3.3,2c1.2,0.7,2.3,1.5,3.3,2.3c0.5,0.5,1,1,1.4,1.5l4-4.5c0.3-0.4,0.5-0.9,0.5-1.4
	c0-0.5-0.2-1-0.6-1.4L30.2,3.9z"/>
<linearGradient id="SVGID_3_" gradientUnits="userSpaceOnUse" x1="3.1062" y1="16.1761" x2="25.2741" y2="16.1761">
	<stop  offset="6.922260e-02" style="stop-color:#F4F4F4"/>
	<stop  offset="0.1199" style="stop-color:#EFEFEF"/>
	<stop  offset="0.3053" style="stop-color:#E4E2E2"/>
	<stop  offset="0.4934" style="stop-color:#E0DEDE"/>
	<stop  offset="0.7787" style="stop-color:#E4E2E2"/>
	<stop  offset="0.957" style="stop-color:#EAEAEA"/>
</linearGradient>
<path class="st2" d="M22,19.8c-1-0.6-2.1-1.3-3.3-2c-1.2-0.7-2.3-1.5-3.3-2.4c-1-0.9-1.9-2.1-2.5-3.4c-0.7-1.3-1-2.9-1-4.8
	C11.9,6,12,5,12.2,4h-1.9C9.7,4,9.2,4.2,8.8,4.6L3.7,9.8c-0.4,0.4-0.6,0.9-0.6,1.4c0,0.5,0.2,1,0.5,1.3l14.2,15.1
	c0.4,0.4,0.9,0.7,1.5,0.7c0.6,0,1.1-0.2,1.5-0.7l4.4-4.7c-0.2-0.4-0.4-0.8-0.7-1.1C23.9,21.1,23,20.4,22,19.8z"/>
<linearGradient id="SVGID_4_" gradientUnits="userSpaceOnUse" x1="20.2175" y1="9.2611" x2="36.5" y2="9.2611">
	<stop  offset="6.922260e-02" style="stop-color:#F4F4F4"/>
	<stop  offset="0.1199" style="stop-color:#EFEFEF"/>
	<stop  offset="0.3053" style="stop-color:#E4E2E2"/>
	<stop  offset="0.4934" style="stop-color:#E0DEDE"/>
	<stop  offset="0.7787" style="stop-color:#E4E2E2"/>
	<stop  offset="0.957" style="stop-color:#EAEAEA"/>
</linearGradient>
<path class="st3" d="M30.8,3.4c-0.4-0.4-0.9-0.6-1.4-0.6h-8.5c0,0-0.1,0.1-0.1,0.1c-0.4,0.6-0.6,1.3-0.6,2.1c0,1.1,0.3,2,1,2.8
	c0.7,0.7,1.5,1.5,2.5,2.1c1,0.7,2.1,1.3,3.3,2c1.2,0.7,2.3,1.5,3.3,2.3c0.5,0.5,1,1,1.4,1.5l4.2-4.5c0.3-0.4,0.5-0.9,0.5-1.4
	c0-0.5-0.2-1-0.6-1.4L30.8,3.4z"/>
</svg>
