<?xml version="1.0" encoding="UTF-8" standalone="no"?>
<!DOCTYPE svg PUBLIC "-//W3C//DTD SVG 1.1//EN"
 "http://www.w3.org/Graphics/SVG/1.1/DTD/svg11.dtd">
<!-- Generated by graphviz version 2.40.1 (0)
 -->
<!-- Title: G Pages: 1 -->
<svg width="422pt" height="1266pt"
 viewBox="0.00 0.00 422.00 1266.00" xmlns="http://www.w3.org/2000/svg" xmlns:xlink="http://www.w3.org/1999/xlink">
<g id="graph0" class="graph" transform="scale(1 1) rotate(0) translate(4 1262)">
<title>G</title>
<polygon fill="#ffffff" stroke="transparent" points="-4,4 -4,-1262 418,-1262 418,4 -4,4"/>
<g id="clust1" class="cluster">
<title>cluster_Global</title>
<path fill="none" stroke="#c0c0c0" d="M20,-44C20,-44 394,-44 394,-44 400,-44 406,-50 406,-56 406,-56 406,-1238 406,-1238 406,-1244 400,-1250 394,-1250 394,-1250 20,-1250 20,-1250 14,-1250 8,-1244 8,-1238 8,-1238 8,-56 8,-56 8,-50 14,-44 20,-44"/>
<text text-anchor="middle" x="207" y="-1237.2" font-family="Times,serif" font-size="11.00" fill="#c0c0c0">Global</text>
</g>
<!-- \\controllerAgregar -->
<g id="node1" class="node">
<title>\\controllerAgregar</title>
<polygon fill="none" stroke="#000000" points="350.5,-628 219.5,-628 219.5,-592 350.5,-592 350.5,-628"/>
<text text-anchor="middle" x="285" y="-607.2" font-family="Courier,monospace" font-size="11.00" fill="#000000">controllerAgregar</text>
</g>
<!-- \\Controller -->
<g id="node15" class="node">
<title>\\Controller</title>
<polygon fill="none" stroke="#000000" points="100,-898 16,-898 16,-862 100,-862 100,-898"/>
<text text-anchor="middle" x="58" y="-877.2" font-family="Courier,monospace" font-size="11.00" fill="#000000">Controller</text>
</g>
<!-- \\controllerAgregar&#45;&gt;\\Controller -->
<g id="edge1" class="edge">
<title>\\controllerAgregar&#45;&gt;\\Controller</title>
<path fill="none" stroke="#000000" d="M219.485,-615.4168C202.6179,-619.4069 185.4516,-626.0477 172,-637 103.0088,-693.1729 73.5167,-800.7144 62.9805,-851.7623"/>
<polygon fill="none" stroke="#000000" points="59.51,-851.2714 61.0125,-861.7591 66.3782,-852.6235 59.51,-851.2714"/>
</g>
<!-- \\ControllerSubircontenido -->
<g id="node2" class="node">
<title>\\ControllerSubircontenido</title>
<polygon fill="none" stroke="#000000" points="374.5,-520 195.5,-520 195.5,-484 374.5,-484 374.5,-520"/>
<text text-anchor="middle" x="285" y="-499.2" font-family="Courier,monospace" font-size="11.00" fill="#000000">ControllerSubircontenido</text>
</g>
<!-- \\ControllerSubircontenido&#45;&gt;\\Controller -->
<g id="edge2" class="edge">
<title>\\ControllerSubircontenido&#45;&gt;\\Controller</title>
<path fill="none" stroke="#000000" d="M195.3947,-513.9903C186.8315,-517.8007 178.8163,-522.7051 172,-529 123.2113,-574.0565 78.6837,-776.3092 63.5093,-851.6224"/>
<polygon fill="none" stroke="#000000" points="60.0071,-851.2882 61.4864,-861.7793 66.8723,-852.6556 60.0071,-851.2882"/>
</g>
<!-- \\ControllerHome -->
<g id="node3" class="node">
<title>\\ControllerHome</title>
<polygon fill="none" stroke="#000000" points="340.5,-466 229.5,-466 229.5,-430 340.5,-430 340.5,-466"/>
<text text-anchor="middle" x="285" y="-445.2" font-family="Courier,monospace" font-size="11.00" fill="#000000">ControllerHome</text>
</g>
<!-- \\ControllerHome&#45;&gt;\\Controller -->
<g id="edge3" class="edge">
<title>\\ControllerHome&#45;&gt;\\Controller</title>
<path fill="none" stroke="#000000" d="M229.3745,-449.7831C209.0248,-453.1466 187.271,-460.3256 172,-475 116.4968,-528.3348 75.1143,-768.36 62.2219,-851.5253"/>
<polygon fill="none" stroke="#000000" points="58.7442,-851.114 60.692,-861.5283 65.6637,-852.1724 58.7442,-851.114"/>
</g>
<!-- \\ControllerEditar -->
<g id="node4" class="node">
<title>\\ControllerEditar</title>
<polygon fill="none" stroke="#000000" points="347.5,-412 222.5,-412 222.5,-376 347.5,-376 347.5,-412"/>
<text text-anchor="middle" x="285" y="-391.2" font-family="Courier,monospace" font-size="11.00" fill="#000000">ControllerEditar</text>
</g>
<!-- \\ControllerEditar&#45;&gt;\\Controller -->
<g id="edge4" class="edge">
<title>\\ControllerEditar&#45;&gt;\\Controller</title>
<path fill="none" stroke="#000000" d="M222.4016,-396.778C204.0787,-400.544 185.3947,-407.724 172,-421 109.6563,-482.7913 71.9305,-761.5395 61.1887,-851.7421"/>
<polygon fill="none" stroke="#000000" points="57.7001,-851.4412 60.0126,-861.7805 64.6525,-852.2557 57.7001,-851.4412"/>
</g>
<!-- \\ControllerSendwhatsapp -->
<g id="node5" class="node">
<title>\\ControllerSendwhatsapp</title>
<polygon fill="none" stroke="#000000" points="367.5,-1222 202.5,-1222 202.5,-1186 367.5,-1186 367.5,-1222"/>
<text text-anchor="middle" x="285" y="-1201.2" font-family="Courier,monospace" font-size="11.00" fill="#000000">ControllerSendwhatsapp</text>
</g>
<!-- \\ControllerSendwhatsapp&#45;&gt;\\Controller -->
<g id="edge5" class="edge">
<title>\\ControllerSendwhatsapp&#45;&gt;\\Controller</title>
<path fill="none" stroke="#000000" d="M202.2765,-1194.2591C191.2295,-1190.2139 180.7238,-1184.6424 172,-1177 90.0657,-1105.222 66.7148,-967.7625 60.3114,-908.4271"/>
<polygon fill="none" stroke="#000000" points="63.7758,-907.8947 59.3027,-898.2905 56.8102,-908.5879 63.7758,-907.8947"/>
</g>
<!-- \\ControllerError404 -->
<g id="node6" class="node">
<title>\\ControllerError404</title>
<polygon fill="none" stroke="#000000" points="354,-1168 216,-1168 216,-1132 354,-1132 354,-1168"/>
<text text-anchor="middle" x="285" y="-1147.2" font-family="Courier,monospace" font-size="11.00" fill="#000000">ControllerError404</text>
</g>
<!-- \\ControllerError404&#45;&gt;\\Controller -->
<g id="edge6" class="edge">
<title>\\ControllerError404&#45;&gt;\\Controller</title>
<path fill="none" stroke="#000000" d="M215.9517,-1143.7088C200.2407,-1139.6455 184.5131,-1133.1882 172,-1123 103.0088,-1066.8271 73.5167,-959.2856 62.9805,-908.2377"/>
<polygon fill="none" stroke="#000000" points="66.3782,-907.3765 61.0125,-898.2409 59.51,-908.7286 66.3782,-907.3765"/>
</g>
<!-- \\modelControllerRegistro -->
<g id="node7" class="node">
<title>\\modelControllerRegistro</title>
<polygon fill="none" stroke="#000000" points="371,-304 199,-304 199,-268 371,-268 371,-304"/>
<text text-anchor="middle" x="285" y="-283.2" font-family="Courier,monospace" font-size="11.00" fill="#000000">modelControllerRegistro</text>
</g>
<!-- \\indexModel -->
<g id="node14" class="node">
<title>\\indexModel</title>
<polygon fill="none" stroke="#000000" points="100,-304 16,-304 16,-268 100,-268 100,-304"/>
<text text-anchor="middle" x="58" y="-283.2" font-family="Courier,monospace" font-size="11.00" fill="#000000">indexModel</text>
</g>
<!-- \\modelControllerRegistro&#45;&gt;\\indexModel -->
<g id="edge7" class="edge">
<title>\\modelControllerRegistro&#45;&gt;\\indexModel</title>
<path fill="none" stroke="#000000" d="M198.8574,-286C169.0723,-286 136.6145,-286 110.3709,-286"/>
<polygon fill="none" stroke="#000000" points="110.2692,-282.5001 100.2692,-286 110.2692,-289.5001 110.2692,-282.5001"/>
</g>
<!-- \\ControllerAsignarcondiciones -->
<g id="node8" class="node">
<title>\\ControllerAsignarcondiciones</title>
<polygon fill="none" stroke="#000000" points="388,-1114 182,-1114 182,-1078 388,-1078 388,-1114"/>
<text text-anchor="middle" x="285" y="-1093.2" font-family="Courier,monospace" font-size="11.00" fill="#000000">ControllerAsignarcondiciones</text>
</g>
<!-- \\ControllerAsignarcondiciones&#45;&gt;\\Controller -->
<g id="edge8" class="edge">
<title>\\ControllerAsignarcondiciones&#45;&gt;\\Controller</title>
<path fill="none" stroke="#000000" d="M186.8843,-1077.9675C181.6484,-1075.3647 176.6406,-1072.3927 172,-1069 115.5593,-1027.7364 81.6629,-949.2855 66.8454,-907.6161"/>
<polygon fill="none" stroke="#000000" points="70.1337,-906.4152 63.5674,-898.1005 63.5154,-908.6952 70.1337,-906.4152"/>
</g>
<!-- \\Viewy -->
<g id="node9" class="node">
<title>\\Viewy</title>
<polygon fill="none" stroke="#000000" points="312,-790 258,-790 258,-754 312,-754 312,-790"/>
<text text-anchor="middle" x="285" y="-769.2" font-family="Courier,monospace" font-size="11.00" fill="#000000">Viewy</text>
</g>
<!-- \\ControllerUpdateEstructure -->
<g id="node10" class="node">
<title>\\ControllerUpdateEstructure</title>
<polygon fill="none" stroke="#000000" points="381,-1060 189,-1060 189,-1024 381,-1024 381,-1060"/>
<text text-anchor="middle" x="285" y="-1039.2" font-family="Courier,monospace" font-size="11.00" fill="#000000">ControllerUpdateEstructure</text>
</g>
<!-- \\ControllerUpdateEstructure&#45;&gt;\\Controller -->
<g id="edge9" class="edge">
<title>\\ControllerUpdateEstructure&#45;&gt;\\Controller</title>
<path fill="none" stroke="#000000" d="M189.4785,-1023.9348C183.3831,-1021.3454 177.4957,-1018.3849 172,-1015 127.9724,-987.8828 92.4995,-937.9465 73.4039,-906.9981"/>
<polygon fill="none" stroke="#000000" points="76.1709,-904.8085 68.0122,-898.0494 70.1751,-908.4211 76.1709,-904.8085"/>
</g>
<!-- \\controllerValidarLogin -->
<g id="node11" class="node">
<title>\\controllerValidarLogin</title>
<polygon fill="none" stroke="#000000" points="367.5,-682 202.5,-682 202.5,-646 367.5,-646 367.5,-682"/>
<text text-anchor="middle" x="285" y="-661.2" font-family="Courier,monospace" font-size="11.00" fill="#000000">controllerValidarLogin</text>
</g>
<!-- \\ControllerCentroconsumo -->
<g id="node12" class="node">
<title>\\ControllerCentroconsumo</title>
<polygon fill="none" stroke="#000000" points="371,-1006 199,-1006 199,-970 371,-970 371,-1006"/>
<text text-anchor="middle" x="285" y="-985.2" font-family="Courier,monospace" font-size="11.00" fill="#000000">ControllerCentroconsumo</text>
</g>
<!-- \\ControllerCentroconsumo&#45;&gt;\\Controller -->
<g id="edge10" class="edge">
<title>\\ControllerCentroconsumo&#45;&gt;\\Controller</title>
<path fill="none" stroke="#000000" d="M198.9891,-971.1383C189.7064,-968.2364 180.5404,-964.877 172,-961 140.2429,-946.5833 108.2309,-922.8419 86.2492,-904.7797"/>
<polygon fill="none" stroke="#000000" points="88.2545,-901.8942 78.3371,-898.1666 83.7653,-907.2652 88.2545,-901.8942"/>
</g>
<!-- \\controllerUpdatecatalogo -->
<g id="node13" class="node">
<title>\\controllerUpdatecatalogo</title>
<polygon fill="none" stroke="#000000" points="374.5,-574 195.5,-574 195.5,-538 374.5,-538 374.5,-574"/>
<text text-anchor="middle" x="285" y="-553.2" font-family="Courier,monospace" font-size="11.00" fill="#000000">controllerUpdatecatalogo</text>
</g>
<!-- \\modelControllerPlantilladocente -->
<g id="node16" class="node">
<title>\\modelControllerPlantilladocente</title>
<polygon fill="none" stroke="#000000" points="398,-358 172,-358 172,-322 398,-322 398,-358"/>
<text text-anchor="middle" x="285" y="-337.2" font-family="Courier,monospace" font-size="11.00" fill="#000000">modelControllerPlantilladocente</text>
</g>
<!-- \\modelControllerPlantilladocente&#45;&gt;\\indexModel -->
<g id="edge11" class="edge">
<title>\\modelControllerPlantilladocente&#45;&gt;\\indexModel</title>
<path fill="none" stroke="#000000" d="M209.0967,-321.9437C176.5837,-314.2094 139.4306,-305.3712 110.1019,-298.3943"/>
<polygon fill="none" stroke="#000000" points="110.6133,-294.9183 100.0748,-296.009 108.9933,-301.7283 110.6133,-294.9183"/>
</g>
<!-- \\SPDO -->
<g id="node17" class="node">
<title>\\SPDO</title>
<polygon fill="none" stroke="#000000" points="312,-142 258,-142 258,-106 312,-106 312,-142"/>
<text text-anchor="middle" x="285" y="-121.2" font-family="Courier,monospace" font-size="11.00" fill="#000000">SPDO</text>
</g>
<!-- \\PDO -->
<g id="node25" class="node">
<title>\\PDO</title>
<ellipse fill="none" stroke="#000000" cx="58" cy="-18" rx="34.394" ry="18"/>
<text text-anchor="middle" x="58" y="-14.3" font-family="Times,serif" font-size="14.00" fill="#c0c0c0">\PDO</text>
</g>
<!-- \\SPDO&#45;&gt;\\PDO -->
<g id="edge12" class="edge">
<title>\\SPDO&#45;&gt;\\PDO</title>
<path fill="none" stroke="#000000" d="M257.8591,-120.8836C234.2446,-117.4005 199.5787,-110.3932 172,-97 135.2864,-79.1706 134.2268,-62.2329 100,-40 97.4589,-38.3493 94.7801,-36.7185 92.0557,-35.1359"/>
<polygon fill="none" stroke="#000000" points="93.7536,-32.0753 83.3119,-30.28 90.355,-38.1949 93.7536,-32.0753"/>
</g>
<!-- \\ControllerCatalogo -->
<g id="node18" class="node">
<title>\\ControllerCatalogo</title>
<polygon fill="none" stroke="#000000" points="354,-952 216,-952 216,-916 354,-916 354,-952"/>
<text text-anchor="middle" x="285" y="-931.2" font-family="Courier,monospace" font-size="11.00" fill="#000000">ControllerCatalogo</text>
</g>
<!-- \\ControllerCatalogo&#45;&gt;\\Controller -->
<g id="edge13" class="edge">
<title>\\ControllerCatalogo&#45;&gt;\\Controller</title>
<path fill="none" stroke="#000000" d="M215.968,-917.5783C181.8348,-909.4585 141.3283,-899.8226 109.8793,-892.3413"/>
<polygon fill="none" stroke="#000000" points="110.545,-888.9021 100.0064,-889.9927 108.9249,-895.7121 110.545,-888.9021"/>
</g>
<!-- \\ControllerIndex -->
<g id="node19" class="node">
<title>\\ControllerIndex</title>
<polygon fill="none" stroke="#000000" points="344,-898 226,-898 226,-862 344,-862 344,-898"/>
<text text-anchor="middle" x="285" y="-877.2" font-family="Courier,monospace" font-size="11.00" fill="#000000">ControllerIndex</text>
</g>
<!-- \\ControllerIndex&#45;&gt;\\Controller -->
<g id="edge14" class="edge">
<title>\\ControllerIndex&#45;&gt;\\Controller</title>
<path fill="none" stroke="#000000" d="M225.951,-880C190.236,-880 145.0941,-880 110.6072,-880"/>
<polygon fill="none" stroke="#000000" points="110.2687,-876.5001 100.2687,-880 110.2687,-883.5001 110.2687,-876.5001"/>
</g>
<!-- \\ControllerWebhooktec360 -->
<g id="node20" class="node">
<title>\\ControllerWebhooktec360</title>
<polygon fill="none" stroke="#000000" points="371,-844 199,-844 199,-808 371,-808 371,-844"/>
<text text-anchor="middle" x="285" y="-823.2" font-family="Courier,monospace" font-size="11.00" fill="#000000">ControllerWebhooktec360</text>
</g>
<!-- \\ControllerWebhooktec360&#45;&gt;\\Controller -->
<g id="edge15" class="edge">
<title>\\ControllerWebhooktec360&#45;&gt;\\Controller</title>
<path fill="none" stroke="#000000" d="M209.0967,-844.0563C176.5837,-851.7906 139.4306,-860.6288 110.1019,-867.6057"/>
<polygon fill="none" stroke="#000000" points="108.9933,-864.2717 100.0748,-869.991 110.6133,-871.0817 108.9933,-864.2717"/>
</g>
<!-- \\controllerLogin -->
<g id="node21" class="node">
<title>\\controllerLogin</title>
<polygon fill="none" stroke="#000000" points="344,-250 226,-250 226,-214 344,-214 344,-250"/>
<text text-anchor="middle" x="285" y="-229.2" font-family="Courier,monospace" font-size="11.00" fill="#000000">controllerLogin</text>
</g>
<!-- \\ControllerCdc -->
<g id="node22" class="node">
<title>\\ControllerCdc</title>
<polygon fill="none" stroke="#000000" points="337,-736 233,-736 233,-700 337,-700 337,-736"/>
<text text-anchor="middle" x="285" y="-715.2" font-family="Courier,monospace" font-size="11.00" fill="#000000">ControllerCdc</text>
</g>
<!-- \\ControllerCdc&#45;&gt;\\Controller -->
<g id="edge16" class="edge">
<title>\\ControllerCdc&#45;&gt;\\Controller</title>
<path fill="none" stroke="#000000" d="M232.8272,-723.3977C212.7071,-727.2313 190.2046,-733.7875 172,-745 127.9724,-772.1172 92.4995,-822.0535 73.4039,-853.0019"/>
<polygon fill="none" stroke="#000000" points="70.1751,-851.5789 68.0122,-861.9506 76.1709,-855.1915 70.1751,-851.5789"/>
</g>
<!-- \\modelControllerValidar -->
<g id="node23" class="node">
<title>\\modelControllerValidar</title>
<polygon fill="none" stroke="#000000" points="367.5,-196 202.5,-196 202.5,-160 367.5,-160 367.5,-196"/>
<text text-anchor="middle" x="285" y="-175.2" font-family="Courier,monospace" font-size="11.00" fill="#000000">modelControllerValidar</text>
</g>
<!-- \\modelControllerValidar&#45;&gt;\\indexModel -->
<g id="edge17" class="edge">
<title>\\modelControllerValidar&#45;&gt;\\indexModel</title>
<path fill="none" stroke="#000000" d="M202.287,-193.851C191.8835,-196.9761 181.5505,-200.6644 172,-205 140.2429,-219.4167 108.2309,-243.1581 86.2492,-261.2203"/>
<polygon fill="none" stroke="#000000" points="83.7653,-258.7348 78.3371,-267.8334 88.2545,-264.1058 83.7653,-258.7348"/>
</g>
<!-- \\ControllerLogout -->
<g id="node24" class="node">
<title>\\ControllerLogout</title>
<polygon fill="none" stroke="#000000" points="347.5,-88 222.5,-88 222.5,-52 347.5,-52 347.5,-88"/>
<text text-anchor="middle" x="285" y="-67.2" font-family="Courier,monospace" font-size="11.00" fill="#000000">ControllerLogout</text>
</g>
</g>
</svg>
